<svg class="thumb" width="1000" height="1000" viewBox="0,0,600,600" xmlns="http://www.w3.org/2000/svg" xmlns:inkscape="http://www.inkscape.org/namespaces/inkscape" xmlns:sodipodi="http://sodipodi.sourceforge.net/DTD/sodipodi-0.dtd" xmlns:xlink="http://www.w3.org/1999/xlink" xmlns:ns1="http://www.inkscape.org/namespaces/inkscape" xmlns:sketch="http://www.bohemiancoding.com/sketch/ns">
  <defs></defs>
  <g transform="matrix(0.7606,0,0,0.7606,-53.6216,185.001)">
    <g transform="matrix(0.3089,0,0,0.5318,108.8334,16.9806)">
      <svg width="504" height="504.00100000000003" viewBox="-2,-1.3330000000000002,504,504.00100000000003">
        <defs>
          <linearGradient x1="0" y1="0.5" x2="1" y2="0.5" id="linearGradientSjw288uij4">
            <stop offset="0%" stop-color="#d1d1d1"></stop>
            <stop offset="100%" stop-color="#d1d1d1"></stop>
          </linearGradient>
        </defs>
        <g></g>
        <g></g>
        <g></g>
        <g></g>
        <g>
          <path d="M497,430.182c0,37.271-30.215,67.486-67.486,67.486H70.486C33.215,497.668,3,467.452,3,430.182V71.153  C3,33.882,33.215,3.667,70.486,3.667h359.027C466.785,3.667,497,33.882,497,71.153V430.182z" fill="url('#linearGradientSjw288uij4')" stroke="none" style=""></path>
        </g>
      </svg>
    </g>
    <g transform="matrix(3.7018,0,0,3.7018,91.438,0.0783)">
      <svg width="52.1140010260353" height="81.649" viewBox="19.529999999999998,6.0710000000000015,52.1140010260353,81.649">
        <defs>
          <linearGradient x1="0" y1="0.5" x2="1" y2="0.5" id="linearGradientSjw288uija">
            <stop offset="0%" stop-color="#1a1a1a"></stop>
            <stop offset="100%" stop-color="#1a1a1a"></stop>
          </linearGradient>
        </defs>
        <g></g>
        <g></g>
        <g></g>
        <g>
          <path fill="url('#linearGradientSjw288uija')" d="M59.625,82.72H31.551c-3.871,0-7.021-3.149-7.021-7.02V18.091c0-3.871,3.149-7.02,7.021-7.02h28.073    c3.87,0,7.02,3.149,7.02,7.02V75.7c0.001,1.875-0.729,3.638-2.054,4.964S61.501,82.72,59.625,82.72z M31.551,14.071    c-2.217,0-4.021,1.803-4.021,4.02V75.7c0,2.217,1.804,4.02,4.021,4.02h28.074c2.217,0,4.02-1.803,4.02-4.02l-0.001-57.609    c0-2.217-1.803-4.02-4.02-4.02H31.551z" stroke="none" style=""></path>
        </g>
      </svg>
    </g>
    <g transform="matrix(3.7018,0,0,3.7018,150.6663,207.8523)">
      <svg width="20.421999999999997" height="20.421999999999997" viewBox="35.377,61.85600000000001,20.421999999999997,20.421999999999997">
        <defs>
          <linearGradient x1="0" y1="0.5" x2="1" y2="0.5" id="linearGradientSjw288uijg">
            <stop offset="0%" stop-color="#6d6e71"></stop>
            <stop offset="100%" stop-color="#6d6e71"></stop>
          </linearGradient>
        </defs>
        <g></g>
        <g></g>
        <g></g>
        <g>
          <path fill="url('#linearGradientSjw288uijg')" d="M45.588,77.278c-2.873,0-5.211-2.337-5.211-5.211s2.338-5.211,5.211-5.211s5.211,2.337,5.211,5.211    S48.461,77.278,45.588,77.278z M45.588,69.856c-1.219,0-2.211,0.992-2.211,2.211s0.992,2.211,2.211,2.211s2.211-0.992,2.211-2.211    S46.807,69.856,45.588,69.856z" stroke="none" style=""></path>
        </g>
      </svg>
    </g>
    <g transform="matrix(3.7018,0,0,3.7018,142.8234,26.0753)">
      <svg width="21.744" height="13" viewBox="32.224000000000004,13.010000000000002,21.744,13">
        <defs>
          <linearGradient x1="0" y1="0.5" x2="1" y2="0.5" id="linearGradientSjw288uijm">
            <stop offset="0%" stop-color="#6d6e71"></stop>
            <stop offset="100%" stop-color="#6d6e71"></stop>
          </linearGradient>
        </defs>
        <g></g>
        <g></g>
        <g></g>
        <g>
          <path fill="url('#linearGradientSjw288uijm')" d="M47.468,21.01h-8.744c-0.828,0-1.5-0.671-1.5-1.5s0.672-1.5,1.5-1.5h8.744c0.828,0,1.5,0.671,1.5,1.5     S48.296,21.01,47.468,21.01z" stroke="none" style=""></path>
        </g>
      </svg>
    </g>
    <g transform="matrix(3.7018,0,0,3.7018,190.5855,26.0753)">
      <svg width="13.526000000000003" height="13" viewBox="45.427,13.010000000000002,13.526000000000003,13">
        <defs>
          <linearGradient x1="0" y1="0.5" x2="1" y2="0.5" id="linearGradientSjw288uijs">
            <stop offset="0%" stop-color="#6d6e71"></stop>
            <stop offset="100%" stop-color="#6d6e71"></stop>
          </linearGradient>
        </defs>
        <g></g>
        <g></g>
        <g></g>
        <g>
          <path fill="url('#linearGradientSjw288uijs')" d="M52.453,21.01h-0.526c-0.828,0-1.5-0.671-1.5-1.5s0.672-1.5,1.5-1.5h0.526c0.828,0,1.5,0.671,1.5,1.5     S53.281,21.01,52.453,21.01z" stroke="none" style=""></path>
        </g>
      </svg>
    </g>
    <g transform="matrix(3.7018,0,0,3.7018,154.3681,135.0726)">
      <svg width="18.155207330639094" height="14.103000000000002" viewBox="36.54189633468045,42.629999999999995,18.155207330639094,14.103000000000002">
        <defs>
          <linearGradient x1="0" y1="0.5" x2="1" y2="0.5" id="linearGradientSjw288uijy">
            <stop offset="0%" stop-color="#2fcc76"></stop>
            <stop offset="100%" stop-color="#2fcc76"></stop>
          </linearGradient>
        </defs>
        <g></g>
        <g></g>
        <g></g>
        <g>
          <path fill="url('#linearGradientSjw288uijy')" d="M43.042,51.733c-0.378,0-0.757-0.142-1.048-0.427c-0.593-0.579-0.604-1.528-0.025-2.121    c0.979-1.002,2.287-1.555,3.682-1.555c1.349,0,2.625,0.521,3.594,1.468c0.593,0.579,0.604,1.528,0.025,2.121    c-0.578,0.593-1.529,0.604-2.121,0.024c-0.825-0.805-2.227-0.789-3.033,0.038C43.821,51.582,43.432,51.733,43.042,51.733z" stroke="none" style=""></path>
        </g>
      </svg>
    </g>
    <g transform="matrix(3.7018,0,0,3.7018,141.4119,115.2467)">
      <svg width="25.813031356548755" height="15.687000000000005" viewBox="32.712484321725626,37.215999999999994,25.813031356548755,15.687000000000005">
        <defs>
          <linearGradient x1="0" y1="0.5" x2="1" y2="0.5" id="linearGradientSjw288uij14">
            <stop offset="0%" stop-color="#2fcc76"></stop>
            <stop offset="100%" stop-color="#2fcc76"></stop>
          </linearGradient>
        </defs>
        <g></g>
        <g></g>
        <g></g>
        <g>
          <path fill="url('#linearGradientSjw288uij14')" d="M39.213,47.903c-0.382,0-0.764-0.145-1.056-0.435c-0.589-0.583-0.593-1.533-0.01-2.121    c2.001-2.02,4.665-3.131,7.503-3.131c2.801,0,5.439,1.086,7.431,3.06c0.589,0.583,0.593,1.533,0.01,2.121s-1.534,0.593-2.121,0.01    c-1.426-1.413-3.315-2.19-5.319-2.19c-2.031,0-3.938,0.796-5.372,2.243C39.985,47.754,39.599,47.903,39.213,47.903z" stroke="none" style=""></path>
        </g>
      </svg>
    </g>
    <g transform="matrix(3.7018,0,0,3.7018,126.6048,96.565)">
      <svg width="33.945010238907855" height="17.371000000000002" viewBox="28.64549488054608,31.466,33.945010238907855,17.371000000000002">
        <defs>
          <linearGradient x1="0" y1="0.5" x2="1" y2="0.5" id="linearGradientSjw288uij1a">
            <stop offset="0%" stop-color="#2fcc76"></stop>
            <stop offset="100%" stop-color="#2fcc76"></stop>
          </linearGradient>
        </defs>
        <g></g>
        <g></g>
        <g></g>
        <g>
          <path fill="url('#linearGradientSjw288uij1a')" d="M35.146,43.837c-0.383,0-0.765-0.146-1.058-0.437c-0.588-0.584-0.59-1.534-0.006-2.121    c3.086-3.104,7.194-4.813,11.567-4.813c4.337,0,8.421,1.685,11.499,4.745c0.588,0.584,0.59,1.534,0.006,2.122    c-0.584,0.588-1.533,0.59-2.121,0.006c-2.512-2.498-5.845-3.873-9.384-3.873c-3.568,0-6.921,1.396-9.44,3.929    C35.917,43.689,35.532,43.837,35.146,43.837z" stroke="none" style=""></path>
        </g>
      </svg>
    </g>
    <g transform="matrix(1.0257,0,0,1.0257,259.1971,52.5923)">
      <svg width="548.3" height="181" style="overflow: visible;">
        <defs>
          <linearGradient x1="0" y1="0.5" x2="1" y2="0.5" id="linearGradientSjw288uij1i">
            <stop offset="0%" stop-color="#2fcc76"></stop>
            <stop offset="100%" stop-color="#2fcc76"></stop>
          </linearGradient>
        </defs>
        <g transform="matrix(1,0,0,1,0,90.75)">
          <path d="M 22.8 0L 22.8-56.8L 0.4-56.8L 0.4-70L 61.4-70L 61.4-56.8L 39-56.8L 39 0L 22.8 0ZM 116.20000000000002-26.7Q 116.20000000000002-26.4  115.9-22.5L 115.9-22.5L 75.20000000000002-22.5Q 76.30000000000001-17.5  80.4-14.6Q 84.50000000000001-11.7  90.60000000000001-11.7L 90.60000000000001-11.7Q 94.80000000000001-11.7  98.05000000000001-12.95Q 101.30000000000001-14.2  104.10000000000001-16.9L 104.10000000000001-16.9L 112.4-7.9Q 104.80000000000001 0.8  90.20000000000002 0.8L 90.20000000000002 0.8Q 81.10000000000001 0.8  74.10000000000001-2.75Q 67.10000000000001-6.3  63.30000000000001-12.6Q 59.500000000000014-18.9  59.500000000000014-26.9L 59.500000000000014-26.9Q 59.500000000000014-34.8  63.250000000000014-41.15Q 67.00000000000001-47.5  73.55000000000001-51.05Q 80.10000000000001-54.6  88.20000000000002-54.6L 88.20000000000002-54.6Q 96.10000000000001-54.6  102.50000000000001-51.2Q 108.9-47.8  112.55000000000001-41.45Q 116.20000000000002-35.1  116.20000000000002-26.7L 116.20000000000002-26.7ZM 88.30000000000001-42.8Q 83.00000000000001-42.8  79.4-39.8Q 75.80000000000001-36.8  75.00000000000001-31.6L 75.00000000000001-31.6L 101.50000000000001-31.6Q 100.70000000000002-36.7  97.10000000000001-39.75Q 93.50000000000001-42.8  88.30000000000001-42.8L 88.30000000000001-42.8ZM 152.59999999999997 0.8Q 143.99999999999997 0.8  137.14999999999998-2.75Q 130.29999999999998-6.3  126.44999999999997-12.6Q 122.59999999999998-18.9  122.59999999999998-26.9L 122.59999999999998-26.9Q 122.59999999999998-34.9  126.44999999999997-41.2Q 130.29999999999998-47.5  137.14999999999998-51.05Q 143.99999999999997-54.6  152.59999999999997-54.6L 152.59999999999997-54.6Q 161.09999999999997-54.6  167.45-51.05Q 173.79999999999998-47.5  176.7-40.9L 176.7-40.9L 164.59999999999997-34.4Q 160.39999999999998-41.8  152.49999999999997-41.8L 152.49999999999997-41.8Q 146.39999999999998-41.8  142.39999999999998-37.8Q 138.39999999999998-33.8  138.39999999999998-26.9L 138.39999999999998-26.9Q 138.39999999999998-20  142.39999999999998-16Q 146.39999999999998-12  152.49999999999997-12L 152.49999999999997-12Q 160.49999999999997-12  164.59999999999997-19.4L 164.59999999999997-19.4L 176.7-12.8Q 173.79999999999998-6.4  167.45-2.8Q 161.09999999999997 0.8  152.59999999999997 0.8L 152.59999999999997 0.8ZM 217.99999999999997-54.6Q 227.99999999999997-54.6  234.14999999999998-48.6Q 240.29999999999995-42.6  240.29999999999995-30.8L 240.29999999999995-30.8L 240.29999999999995 0L 224.69999999999996 0L 224.69999999999996-28.4Q 224.69999999999996-34.8  221.89999999999998-37.95Q 219.09999999999997-41.1  213.79999999999995-41.1L 213.79999999999995-41.1Q 207.89999999999998-41.1  204.39999999999998-37.45Q 200.89999999999998-33.8  200.89999999999998-26.6L 200.89999999999998-26.6L 200.89999999999998 0L 185.29999999999995 0L 185.29999999999995-74.2L 200.89999999999998-74.2L 200.89999999999998-48.2Q 203.99999999999997-51.3  208.39999999999998-52.95Q 212.79999999999995-54.6  217.99999999999997-54.6L 217.99999999999997-54.6ZM 315.2-27.9L 315.2-14.7L 303.8-14.7L 303.8 0L 288 0L 288-14.7L 250.29999999999998-14.7L 250.29999999999998-25.6L 283.3-70L 300.3-70L 269.7-27.9L 288.5-27.9L 288.5-41L 303.8-41L 303.8-27.9L 315.2-27.9ZM 358.90000000000003 1.2Q 348.20000000000005 1.2  339.55-3.45Q 330.90000000000003-8.1  325.95000000000005-16.35Q 321-24.6  321-35L 321-35Q 321-45.4  325.95000000000005-53.65Q 330.90000000000003-61.9  339.55-66.55Q 348.20000000000005-71.2  359-71.2L 359-71.2Q 368.1-71.2  375.45000000000005-68Q 382.8-64.8  387.8-58.8L 387.8-58.8L 377.40000000000003-49.2Q 370.3-57.4  359.8-57.4L 359.8-57.4Q 353.3-57.4  348.20000000000005-54.55Q 343.1-51.7  340.25-46.6Q 337.40000000000003-41.5  337.40000000000003-35L 337.40000000000003-35Q 337.40000000000003-28.5  340.25-23.4Q 343.1-18.3  348.20000000000005-15.45Q 353.3-12.6  359.8-12.6L 359.8-12.6Q 370.3-12.6  377.40000000000003-20.9L 377.40000000000003-20.9L 387.8-11.3Q 382.8-5.2  375.40000000000003-2Q 368 1.2  358.90000000000003 1.2L 358.90000000000003 1.2ZM 418.9-54.6Q 431.4-54.6  438.1-48.65Q 444.8-42.7  444.8-30.7L 444.8-30.7L 444.8 0L 430.2 0L 430.2-6.7Q 425.8 0.8  413.8 0.8L 413.8 0.8Q 407.6 0.8  403.05-1.3Q 398.5-3.4  396.1-7.1Q 393.7-10.8  393.7-15.5L 393.7-15.5Q 393.7-23  399.35-27.3Q 405-31.6  416.8-31.6L 416.8-31.6L 429.2-31.6Q 429.2-36.7  426.1-39.45Q 423-42.2  416.8-42.2L 416.8-42.2Q 412.5-42.2  408.35-40.85Q 404.2-39.5  401.3-37.2L 401.3-37.2L 395.7-48.1Q 400.1-51.2  406.25-52.9Q 412.4-54.6  418.9-54.6L 418.9-54.6ZM 417.7-9.7Q 421.7-9.7  424.8-11.55Q 427.9-13.4  429.2-17L 429.2-17L 429.2-22.5L 418.5-22.5Q 408.9-22.5  408.9-16.2L 408.9-16.2Q 408.9-13.2  411.25-11.45Q 413.6-9.7  417.7-9.7L 417.7-9.7ZM 477.00000000000006 0.8Q 470.30000000000007 0.8  463.90000000000003-0.85Q 457.50000000000006-2.5  453.70000000000005-5L 453.70000000000005-5L 458.90000000000003-16.2Q 462.50000000000006-13.9  467.6-12.45Q 472.70000000000005-11  477.6-11L 477.6-11Q 487.50000000000006-11  487.50000000000006-15.9L 487.50000000000006-15.9Q 487.50000000000006-18.2  484.80000000000007-19.2Q 482.1-20.2  476.50000000000006-20.9L 476.50000000000006-20.9Q 469.90000000000003-21.9  465.6-23.2Q 461.30000000000007-24.5  458.15000000000003-27.8Q 455.00000000000006-31.1  455.00000000000006-37.2L 455.00000000000006-37.2Q 455.00000000000006-42.3  457.95000000000005-46.25Q 460.90000000000003-50.2  466.55000000000007-52.4Q 472.20000000000005-54.6  479.90000000000003-54.6L 479.90000000000003-54.6Q 485.6-54.6  491.25000000000006-53.35Q 496.90000000000003-52.1  500.6-49.9L 500.6-49.9L 495.40000000000003-38.8Q 488.30000000000007-42.8  479.90000000000003-42.8L 479.90000000000003-42.8Q 474.90000000000003-42.8  472.40000000000003-41.4Q 469.90000000000003-40  469.90000000000003-37.8L 469.90000000000003-37.8Q 469.90000000000003-35.3  472.6-34.3Q 475.30000000000007-33.3  481.20000000000005-32.4L 481.20000000000005-32.4Q 487.80000000000007-31.3  492.00000000000006-30.05Q 496.20000000000005-28.8  499.30000000000007-25.5Q 502.40000000000003-22.2  502.40000000000003-16.3L 502.40000000000003-16.3Q 502.40000000000003-11.3  499.40000000000003-7.4Q 496.40000000000003-3.5  490.65000000000003-1.35Q 484.90000000000003 0.8  477.00000000000006 0.8L 477.00000000000006 0.8ZM 542.5000000000001-13.6L 546.7-2.6Q 544.4000000000001-0.9  541.0500000000001-0.05Q 537.7 0.8  534.0000000000001 0.8L 534.0000000000001 0.8Q 524.4000000000001 0.8  519.1500000000001-4.1Q 513.9000000000001-9  513.9000000000001-18.5L 513.9000000000001-18.5L 513.9000000000001-40.6L 505.6000000000001-40.6L 505.6000000000001-52.6L 513.9000000000001-52.6L 513.9000000000001-65.7L 529.5000000000001-65.7L 529.5000000000001-52.6L 542.9000000000001-52.6L 542.9000000000001-40.6L 529.5000000000001-40.6L 529.5000000000001-18.7Q 529.5000000000001-15.3  531.2500000000001-13.45Q 533.0000000000001-11.6  536.2-11.6L 536.2-11.6Q 539.9000000000001-11.6  542.5000000000001-13.6L 542.5000000000001-13.6Z" data-textpath="Tech4Cast" data-text-anchor="middle" data-font-size="100" data-letterspacing="0" data-side="left" data-offset="0.5" data-dx="0" data-dy="0" data-xmlspace="preserve" data-href="" data-font="Montserrat" data-font-src="/Content/clientfonts/montserrat-bold.woff" data-font-scale="contain" transform="translate(0,0)" data-x="0" data-y="0" fill="url('#linearGradientSjw288uij1i')"></path>
        </g>
      </svg>
    </g>
  </g>
</svg>